<?xml version="1.0" encoding="UTF-8" standalone="no"?>

<!--
    File: logo.svg
    Author: Peter Nilsson (@ittykeys)
    Date: March 18, 2024
    License: © 2024 Peter Nilsson, released under the GPLv3 License. See LICENSE file for details.
    Description: Logo for skaneresa.se
-->
<!-- Created with Inkscape (http://www.inkscape.org/) -->

<svg xmlns:dc="http://purl.org/dc/elements/1.1/" xmlns:cc="http://creativecommons.org/ns#" xmlns:rdf="http://www.w3.org/1999/02/22-rdf-syntax-ns#" xmlns:svg="http://www.w3.org/2000/svg" xmlns="http://www.w3.org/2000/svg" xmlns:sodipodi="http://sodipodi.sourceforge.net/DTD/sodipodi-0.dtd" xmlns:inkscape="http://www.inkscape.org/namespaces/inkscape" version="1.1" id="svg2" width="953.1557" height="881.62378" viewBox="0 0 953.1557 881.62378" sodipodi:docname="logo.svg" inkscape:version="0.92.5 (2060ec1f9f, 2020-04-08)">
  <metadata id="metadata8">
    <rdf:RDF>
      <cc:Work rdf:about="">
        <dc:format>image/svg+xml</dc:format>
        <dc:type rdf:resource="http://purl.org/dc/dcmitype/StillImage" />
      </cc:Work>
    </rdf:RDF>
  </metadata>
  <defs id="defs6" />
  <sodipodi:namedview pagecolor="#ffffff" bordercolor="#666666" borderopacity="1" objecttolerance="10" gridtolerance="10" guidetolerance="10" inkscape:pageopacity="0" inkscape:pageshadow="2" inkscape:window-width="1861" inkscape:window-height="1056" id="namedview4" showgrid="false" fit-margin-top="0" fit-margin-left="0" fit-margin-right="0" fit-margin-bottom="0" inkscape:zoom="0.57820342" inkscape:cx="240.56113" inkscape:cy="405.19525" inkscape:window-x="59" inkscape:window-y="273" inkscape:window-maximized="1" inkscape:current-layer="g817" />
  <g id="g817" transform="translate(-24.003195,-98.160688)">
    <path style="fill:#ba0053;fill-opacity:0.98122068" d="M 90,979.37435 C 68.05082,975.12764 50.286701,959.90969 42.870482,939 c -1.937593,-5.46295 -2.305411,-8.49432 -2.305411,-19 c 0,-10.50568 0.367818,-13.53705 2.305411,-19 c 3.312698,-9.34 8.615842,-17.54705 15.98323,-24.73535 l 6.426235,-6.27003 l -8.400578,-8.74731 C 47.584717,851.56902 42.847746,844.88537 36.586965,832.61562 C 28.411686,816.59388 24.009015,798.46654 24.003195,780.80381 C 23.998533,766.65604 77.53072,195.04936 79.61419,187 C 91.179063,142.31983 136.58447,105.85594 189.18058,99.010119 C 195.04208,98.247197 289.38319,98.020052 508.5,98.241295 c 296.14427,0.299017 311.35826,0.400525 318.5,2.125045 c 13.70979,3.31051 25.62783,7.5866 36.40005,13.06003 C 896.00399,129.9926 919.88288,158.55693 926.57726,189 c 1.94023,8.8233 50.63525,577.78049 50.58159,591 c -0.1225,30.17565 -11.8247,58.48015 -33.90749,82.01313 l -7.98852,8.51314 l 4.37575,3.35916 c 2.40666,1.84754 6.36626,6.00713 8.79912,9.24355 c 9.29377,12.36345 13.05261,24.55295 12.2949,39.87102 C 959.45064,948.91677 943.874,968.82778 918,977.62342 c -4.16781,1.41681 -8.4066,1.86967 -17.5,1.86967 c -9.0934,0 -13.33219,-0.45286 -17.5,-1.86967 C 863.16361,970.88021 849.40347,957.62367 842.90932,939 c -1.79701,-5.15339 -2.28137,-8.77888 -2.33795,-17.5 c -0.0393,-6.05 0.28652,-12.6875 0.72394,-14.75 L 842.09063,903 H 500.5 H 158.90937 l 0.79532,3.75 c 0.43742,2.0625 0.76319,8.7 0.72394,14.75 c -0.0566,8.72112 -0.54094,12.34661 -2.33795,17.5 c -6.40341,18.36345 -19.62634,31.3529 -38.81538,38.13001 C 113.56433,979.14699 95.845636,980.50536 90,979.37435 Z M 860.70787,848.26355 C 878.17926,843.55258 890.89095,836.42619 902,825.11447 C 917.20475,809.63232 924.09459,791.52452 924.11196,767 c 0.0114,-16.09262 -41.61856,-558.48892 -43.63347,-568.5 c -6.47707,-32.18135 -35.51021,-56.22087 -73.02459,-60.46456 c -7.22837,-0.81769 -92.3722,-1.0332 -310.9539,-0.78705 c -330.30371,0.37195 -303.71679,-0.12946 -320.73813,6.04895 c -19.74631,7.16753 -38.1163,23.15702 -45.43354,39.54599 c -5.86681,13.14031 -5.14003,5.87269 -29.81604,298.15412 c -12.931759,153.1736 -23.508891,282.5486 -23.504736,287.5 c 0.0238,28.35948 11.524744,51.28859 33.220446,66.23064 c 8.88925,6.12211 13.22501,8.32307 22.2316,11.28541 c 15.20415,5.00076 -0.0174,4.81101 371.5404,4.63154 l 348.5,-0.16833 z M 190.5,814.65703 C 179.59563,811.03806 172.83371,805.20241 168.30226,795.5 C 165.8846,790.32347 165.5,788.26479 165.5,780.5 c 0,-7.76841 0.38687,-9.83713 2.82707,-15.11743 c 3.51939,-7.61552 9.37831,-13.44336 17.17293,-17.08182 c 5.17524,-2.41576 7.23714,-2.80075 15,-2.80075 c 7.76286,0 9.82476,0.38499 15,2.80075 c 7.79462,3.63846 13.65354,9.4663 17.17293,17.08182 c 2.4402,5.2803 2.82707,7.34902 2.82707,15.11743 c 0,7.76841 -0.38687,9.83713 -2.82707,15.11743 c -5.61196,12.14359 -16.82116,19.47675 -30.65314,20.05355 c -4.43471,0.18493 -9.16083,-0.23105 -11.51979,-1.01395 z m 600,0 C 779.59563,811.03806 772.83371,805.20241 768.30226,795.5 C 765.8846,790.32347 765.5,788.26479 765.5,780.5 c 0,-7.76841 0.38687,-9.83713 2.82707,-15.11743 c 3.51939,-7.61552 9.37831,-13.44336 17.17293,-17.08182 c 5.17524,-2.41576 7.23714,-2.80075 15,-2.80075 c 7.76286,0 9.82476,0.38499 15,2.80075 c 7.79462,3.63846 13.65354,9.4663 17.17293,17.08182 c 2.4402,5.2803 2.82707,7.34902 2.82707,15.11743 c 0,7.76841 -0.38687,9.83713 -2.82707,15.11743 c -5.61196,12.14359 -16.82116,19.47675 -30.65314,20.05355 c -4.43471,0.18493 -9.16083,-0.23105 -11.51979,-1.01395 z M 359.1684,804.46666 c -18.3254,-3.97772 -35.96027,-17.82541 -44.05634,-34.59501 c -6.89068,-14.27286 -8.79529,-29.26291 -5.62147,-44.2433 c 3.96787,-18.72831 17.65295,-36.31632 34.63776,-44.51629 c 15.46419,-7.46583 6.88042,-7.07733 156.37165,-7.07733 c 113.4921,0 135.05166,0.22281 140.87165,1.45586 c 18.72831,3.96787 36.31632,17.65295 44.51629,34.63776 c 9.52246,19.72413 9.52246,40.01917 0,59.7433 c -5.87313,12.16515 -16.85114,23.14316 -29.01629,29.01629 c -15.4788,7.47289 -6.79447,7.08453 -156.87165,7.0152 c -110.17455,-0.0509 -135.64512,-0.3107 -140.8316,-1.43648 z M 190.5,734.65703 C 179.59563,731.03806 172.83371,725.20241 168.30226,715.5 C 165.8846,710.32347 165.5,708.26479 165.5,700.5 c 0,-7.76841 0.38687,-9.83713 2.82707,-15.11743 c 3.51939,-7.61552 9.37831,-13.44336 17.17293,-17.08182 c 5.17524,-2.41576 7.23714,-2.80075 15,-2.80075 c 7.76286,0 9.82476,0.38499 15,2.80075 c 7.79462,3.63846 13.65354,9.4663 17.17293,17.08182 c 2.4402,5.2803 2.82707,7.34902 2.82707,15.11743 c 0,7.76841 -0.38687,9.83713 -2.82707,15.11743 c -5.61196,12.14359 -16.82116,19.47675 -30.65314,20.05355 c -4.43471,0.18493 -9.16083,-0.23105 -11.51979,-1.01395 z m 600,0 C 779.59563,731.03806 772.83371,725.20241 768.30226,715.5 C 765.8846,710.32347 765.5,708.26479 765.5,700.5 c 0,-7.76841 0.38687,-9.83713 2.82707,-15.11743 c 3.51939,-7.61552 9.37831,-13.44336 17.17293,-17.08182 c 5.17524,-2.41576 7.23714,-2.80075 15,-2.80075 c 7.76286,0 9.82476,0.38499 15,2.80075 c 7.79462,3.63846 13.65354,9.4663 17.17293,17.08182 c 2.4402,5.2803 2.82707,7.34902 2.82707,15.11743 c 0,7.76841 -0.38687,9.83713 -2.82707,15.11743 c -5.61196,12.14359 -16.82116,19.47675 -30.65314,20.05355 c -4.43471,0.18493 -9.16083,-0.23105 -11.51979,-1.01395 z m -462,-127.3164 C 294.29771,600.02952 263.92564,574.34787 251.22577,542 C 244.07335,523.78204 244.5,532.72646 244.5,401 c 0,-131.72646 -0.42665,-122.78204 6.72577,-141 c 10.59215,-26.97928 34.37667,-50.38741 61.53229,-60.55854 C 330.99461,192.61097 319.68627,193 500,193 c 180.31373,0 169.00539,-0.38903 187.24194,6.44146 c 27.15562,10.17113 50.94014,33.57926 61.53229,60.55854 c 7.15242,18.21796 6.72577,9.27354 6.72577,141 c 0,131.72646 0.42665,122.78204 -6.72577,141 c -10.59215,26.97928 -34.37667,50.38741 -61.53229,60.55854 c -18.25584,6.83771 -6.801,6.4501 -187.94978,6.35993 C 357.87894,608.84809 334.54359,608.63251 328.5,607.34063 Z M 664.30048,566.27448 C 689.31953,559.159 706.87753,541.09334 713.64817,515.5 C 715.39571,508.8942 715.5,502.44614 715.5,401 c 0,-101.44614 -0.10429,-107.8942 -1.85183,-114.5 c -5.47905,-20.7111 -17.84481,-36.38743 -35.86129,-45.46215 C 661.81874,232.99487 673.73274,233.5 500,233.5 c -173.73274,0 -161.81874,-0.50513 -177.78688,7.53785 C 304.19664,250.11257 291.83088,265.7889 286.35183,286.5 C 284.60429,293.1058 284.5,299.55386 284.5,401 c 0,101.44614 0.10429,107.8942 1.85183,114.5 c 6.29009,23.77685 23.38244,42.57211 45.00837,49.49255 c 11.95548,3.82584 13.27931,3.85418 171.6398,3.67453 l 153.5,-0.17412 z" id="path831" inkscape:connector-curvature="0" />
  </g>
</svg>